<svg width="64" height="21" viewBox="0 0 64 21" fill="none" xmlns="http://www.w3.org/2000/svg">
<path d="M6.76525 0V4.9554H10.2666V5.55971H6.76525V17.7669C6.76525 18.3712 6.87404 18.8043 7.09164 19.0662C7.30923 19.3079 7.63563 19.4288 8.07082 19.4288C8.42688 19.4288 8.78295 19.2978 9.13902 19.036C9.49508 18.754 9.81158 18.2806 10.0885 17.6158L10.5929 17.8878C10.2764 18.7942 9.7918 19.5396 9.13902 20.1237C8.50601 20.7079 7.63563 21 6.52787 21C5.87508 21 5.30142 20.9094 4.80688 20.7281C4.31235 20.5669 3.89694 20.3151 3.56066 19.9727C3.12546 19.5295 2.83863 18.9856 2.70016 18.341C2.56169 17.6763 2.49246 16.8201 2.49246 15.7727V5.55971H0V4.9554H2.49246V0.966907C3.32328 0.966907 4.08486 0.896403 4.77721 0.755397C5.48934 0.594245 6.15202 0.342446 6.76525 0Z" fill="#E81303"/>
<path d="M25.9501 4.62302V17.2835C25.9501 18.1899 26.0886 18.8647 26.3655 19.3079C26.6425 19.7309 27.137 19.9424 27.8491 19.9424V20.577C27.2359 20.5165 26.6227 20.4863 26.0095 20.4863C25.1787 20.4863 24.4072 20.5165 23.695 20.577C22.9829 20.6374 22.3104 20.7482 21.6773 20.9094V18.1899C21.2026 19.1971 20.5399 19.9223 19.6893 20.3655C18.8585 20.7885 17.9288 21 16.9001 21C16.0693 21 15.3967 20.8892 14.8824 20.6676C14.3681 20.446 13.9626 20.164 13.6659 19.8216C13.3296 19.4388 13.0922 18.9353 12.9537 18.3108C12.8153 17.6863 12.746 16.8806 12.746 15.8935V8.24892C12.746 7.34245 12.6076 6.6777 12.3306 6.25468C12.0735 5.81151 11.5789 5.58993 10.847 5.58993V4.9554C11.48 5.01583 12.0932 5.04604 12.6867 5.04604C13.5175 5.04604 14.289 5.01583 15.0011 4.9554C15.733 4.87482 16.4056 4.76403 17.0188 4.62302V17.1324C17.0188 17.636 17.0584 18.0791 17.1375 18.4619C17.2364 18.8446 17.4144 19.1468 17.6716 19.3683C17.9288 19.5698 18.3046 19.6705 18.7991 19.6705C19.3332 19.6705 19.808 19.5194 20.2234 19.2173C20.6586 18.9151 21.0048 18.5022 21.2619 17.9784C21.5389 17.4345 21.6773 16.8302 21.6773 16.1655V8.24892C21.6773 7.34245 21.5389 6.6777 21.2619 6.25468C21.0048 5.81151 20.5102 5.58993 19.7783 5.58993V4.9554C20.4113 5.01583 21.0246 5.04604 21.618 5.04604C22.4488 5.04604 23.2203 5.01583 23.9324 4.9554C24.6643 4.87482 25.3369 4.76403 25.9501 4.62302Z" fill="#E81303"/>
<path d="M35.1914 0V4.9554H38.6927V5.55971H35.1914V17.7669C35.1914 18.3712 35.3002 18.8043 35.5178 19.0662C35.7354 19.3079 36.0618 19.4288 36.4969 19.4288C36.853 19.4288 37.2091 19.2978 37.5651 19.036C37.9212 18.754 38.2377 18.2806 38.5147 17.6158L39.0191 17.8878C38.7026 18.7942 38.2179 19.5396 37.5651 20.1237C36.9321 20.7079 36.0618 21 34.954 21C34.3012 21 33.7276 20.9094 33.233 20.7281C32.7385 20.5669 32.3231 20.3151 31.9868 19.9727C31.5516 19.5295 31.2648 18.9856 31.1263 18.341C30.9878 17.6763 30.9186 16.8201 30.9186 15.7727V5.55971H28.4261V4.9554H30.9186V0.966907C31.7494 0.966907 32.511 0.896403 33.2033 0.755397C33.9155 0.594245 34.5782 0.342446 35.1914 0Z" fill="#E81303"/>
<path d="M44.7827 0V4.9554H48.284V5.55971H44.7827V17.7669C44.7827 18.3712 44.8915 18.8043 45.1091 19.0662C45.3266 19.3079 45.653 19.4288 46.0882 19.4288C46.4443 19.4288 46.8004 19.2978 47.1564 19.036C47.5125 18.754 47.829 18.2806 48.1059 17.6158L48.6104 17.8878C48.2939 18.7942 47.8092 19.5396 47.1564 20.1237C46.5234 20.7079 45.653 21 44.5453 21C43.8925 21 43.3188 20.9094 42.8243 20.7281C42.3298 20.5669 41.9144 20.3151 41.5781 19.9727C41.1429 19.5295 40.856 18.9856 40.7176 18.341C40.5791 17.6763 40.5099 16.8201 40.5099 15.7727V5.55971H38.0174V4.9554H40.5099V0.966907C41.3407 0.966907 42.1023 0.896403 42.7946 0.755397C43.5068 0.594245 44.1694 0.342446 44.7827 0Z" fill="#E81303"/>
<path d="M56.7303 4.53238C58.1744 4.53238 59.4404 4.80432 60.5284 5.3482C61.6163 5.89209 62.4669 6.76835 63.0802 7.97698C63.6934 9.18561 64 10.7871 64 12.7813C64 14.7755 63.6934 16.377 63.0802 17.5856C62.4669 18.7741 61.6163 19.6403 60.5284 20.1842C59.4404 20.7281 58.1744 21 56.7303 21C55.3258 21 54.0697 20.7281 52.962 20.1842C51.874 19.6403 51.0135 18.7741 50.3805 17.5856C49.7673 16.377 49.4607 14.7755 49.4607 12.7813C49.4607 10.7871 49.7673 9.18561 50.3805 7.97698C51.0135 6.76835 51.874 5.89209 52.962 5.3482C54.0697 4.80432 55.3258 4.53238 56.7303 4.53238ZM56.7303 5.13669C55.9391 5.13669 55.2764 5.74101 54.7423 6.94964C54.2082 8.13813 53.9411 10.082 53.9411 12.7813C53.9411 15.4806 54.2082 17.4245 54.7423 18.613C55.2764 19.8014 55.9391 20.3957 56.7303 20.3957C57.5414 20.3957 58.204 19.8014 58.7184 18.613C59.2525 17.4245 59.5195 15.4806 59.5195 12.7813C59.5195 10.082 59.2525 8.13813 58.7184 6.94964C58.204 5.74101 57.5414 5.13669 56.7303 5.13669Z" fill="#E81303"/>
</svg>
