<svg width="28" height="29" viewBox="0 0 28 29" fill="none" xmlns="http://www.w3.org/2000/svg">
<path d="M9.38489 0V6.84317H14.242V7.6777H9.38489V24.5353C9.38489 25.3698 9.53582 25.9679 9.83767 26.3295C10.1395 26.6633 10.5923 26.8302 11.196 26.8302C11.69 26.8302 12.1839 26.6494 12.6778 26.2878C13.1718 25.8983 13.6108 25.2446 13.995 24.3266L14.6948 24.7022C14.2557 25.954 13.5834 26.9832 12.6778 27.7899C11.7997 28.5966 10.5923 29 9.0556 29C8.15004 29 7.35424 28.8748 6.66821 28.6245C5.98218 28.4019 5.40592 28.0542 4.93942 27.5813C4.33571 26.9693 3.93781 26.2182 3.74572 25.3281C3.55364 24.4101 3.45759 23.2278 3.45759 21.7813V7.6777H0V6.84317H3.45759V1.33525C4.61012 1.33525 5.66661 1.23789 6.62705 1.04317C7.61494 0.820624 8.53422 0.472902 9.38489 0Z" fill="#E81303"/>
<path d="M22.6901 0V6.84317H27.5472V7.6777H22.6901V24.5353C22.6901 25.3698 22.8411 25.9679 23.1429 26.3295C23.4448 26.6633 23.8975 26.8302 24.5012 26.8302C24.9952 26.8302 25.4891 26.6494 25.9831 26.2878C26.477 25.8983 26.9161 25.2446 27.3002 24.3266L28 24.7022C27.5609 25.954 26.8886 26.9832 25.9831 27.7899C25.105 28.5966 23.8975 29 22.3608 29C21.4553 29 20.6595 28.8748 19.9734 28.6245C19.2874 28.4019 18.7112 28.0542 18.2447 27.5813C17.6409 26.9693 17.243 26.2182 17.051 25.3281C16.8589 24.4101 16.7628 23.2278 16.7628 21.7813V7.6777H13.3052V6.84317H16.7628V1.33525C17.9154 1.33525 18.9718 1.23789 19.9323 1.04317C20.9202 0.820624 21.8394 0.472902 22.6901 0Z" fill="#E81303"/>
</svg>
